<?xml version="1.0" encoding="UTF-8" standalone="no"?>
<svg
   xmlns:dc="http://purl.org/dc/elements/1.1/"
   xmlns:cc="http://creativecommons.org/ns#"
   xmlns:rdf="http://www.w3.org/1999/02/22-rdf-syntax-ns#"
   xmlns:svg="http://www.w3.org/2000/svg"
   xmlns="http://www.w3.org/2000/svg"
   viewBox="0 0 516 134.66667"
   height="134.66667"
   width="516"
   xml:space="preserve"
   id="svg2"
   version="1.1"><metadata
     id="metadata8"><rdf:RDF><cc:Work
         rdf:about=""><dc:format>image/svg+xml</dc:format><dc:type
           rdf:resource="http://purl.org/dc/dcmitype/StillImage" /></cc:Work></rdf:RDF></metadata><defs
     id="defs6"><clipPath
       id="clipPath34"
       clipPathUnits="userSpaceOnUse"><path
         id="path32"
         d="M 0,101 H 387 V 0 H 0 Z" /></clipPath></defs><g
     transform="matrix(1.3333333,0,0,-1.3333333,0,134.66667)"
     id="g10"><g
       transform="translate(86.7285,61.1425)"
       id="g12"><path
         id="path14"
         style="fill:#373535;fill-opacity:1;fill-rule:nonzero;stroke:none"
         d="M 0,0 H -7.98 V 1.511 H 9.625 V 0 H 1.644 V -22.796 H 0 Z" /></g><g
       transform="translate(100.832,62.6532)"
       id="g16"><path
         id="path18"
         style="fill:#373535;fill-opacity:1;fill-rule:nonzero;stroke:none"
         d="M 0,0 H 1.642 V -10.676 H 15.635 V 0 h 1.643 v -24.307 h -1.643 v 12.121 H 1.642 V -24.307 H 0 Z" /></g><g
       transform="translate(124.627,62.6532)"
       id="g20"><path
         id="path22"
         style="fill:#373535;fill-opacity:1;fill-rule:nonzero;stroke:none"
         d="M 0,0 H 14.058 V -1.511 H 1.642 v -9.131 h 9.33 v -1.511 h -9.33 v -10.643 h 13.139 v -1.511 H 0 Z" /></g><g
       transform="translate(143.9834,62.6532)"
       id="g24"><path
         id="path26"
         style="fill:#373535;fill-opacity:1;fill-rule:nonzero;stroke:none"
         d="M 0,0 H 14.584 V -2.66 H 2.891 v -7.818 h 8.606 v -2.595 H 2.891 V -24.307 H 0 Z" /></g><g
       id="g28"><g
         clip-path="url(#clipPath34)"
         id="g30"><g
           transform="translate(178.5166,50.4999)"
           id="g36"><path
             id="path38"
             style="fill:#373535;fill-opacity:1;fill-rule:nonzero;stroke:none"
             d="m 0,0 c 0,6.34 -3.153,9.985 -7.555,9.985 -4.467,0 -7.588,-3.645 -7.588,-9.985 0,-6.339 3.121,-10.018 7.588,-10.018 C -3.153,-10.018 0,-6.339 0,0 m -18.065,0 c 0,7.818 4.5,12.613 10.51,12.613 6.012,0 10.447,-4.795 10.447,-12.613 0,-7.818 -4.435,-12.613 -10.447,-12.613 -6.01,0 -10.51,4.795 -10.51,12.613" /></g><g
           transform="translate(203.1328,50.4999)"
           id="g40"><path
             id="path42"
             style="fill:#373535;fill-opacity:1;fill-rule:nonzero;stroke:none"
             d="m 0,0 c 0,6.34 -3.154,9.985 -7.555,9.985 -4.467,0 -7.588,-3.645 -7.588,-9.985 0,-6.339 3.121,-10.018 7.588,-10.018 C -3.154,-10.018 0,-6.339 0,0 m -18.066,0 c 0,7.818 4.5,12.613 10.511,12.613 6.011,0 10.446,-4.795 10.446,-12.613 0,-7.818 -4.435,-12.613 -10.446,-12.613 -6.011,0 -10.511,4.795 -10.511,12.613" /></g><g
           transform="translate(217.6318,40.9413)"
           id="g44"><path
             id="path46"
             style="fill:#373535;fill-opacity:1;fill-rule:nonzero;stroke:none"
             d="m 0,0 c 5.88,0 9,2.857 9,9.624 0,6.537 -3.153,9.428 -9.065,9.428 H -3.876 L -3.876,0 Z m -6.768,21.712 h 6.407 c 7.818,0 12.252,-3.941 12.252,-12.088 0,-8.244 -4.534,-12.219 -12.252,-12.219 h -6.407 z" /></g><path
           id="path48"
           style="fill:#373535;fill-opacity:1;fill-rule:nonzero;stroke:none"
           d="m 234.693,62.653 h 2.89 V 38.346 h -2.89 z" /><g
           transform="translate(243.8955,62.6532)"
           id="g50"><path
             id="path52"
             style="fill:#373535;fill-opacity:1;fill-rule:nonzero;stroke:none"
             d="M 0,0 H 14.913 V -2.66 H 2.891 v -7.588 h 8.934 v -2.595 H 2.891 v -8.836 h 12.713 v -2.628 l -15.604,0 z" /></g><g
           transform="translate(262.1348,44.2265)"
           id="g54"><path
             id="path56"
             style="fill:#373535;fill-opacity:1;fill-rule:nonzero;stroke:none"
             d="m 0,0 2.431,1.083 c 1.215,-3.251 3.614,-4.86 6.898,-4.86 3.415,0 5.684,1.445 5.684,4.007 0,2.398 -1.317,3.581 -6.112,5.091 -5.057,1.543 -8.08,2.924 -8.08,7.128 0,3.711 3.188,6.438 7.818,6.438 4.632,0 7.326,-2.365 8.575,-5.452 l -2.3,-1.282 c -1.313,2.924 -3.416,4.106 -6.308,4.106 -3.088,0 -4.925,-1.511 -4.925,-3.579 0,-2.597 1.641,-3.45 6.405,-4.96 4.892,-1.512 7.783,-3.155 7.783,-7.293 0,-4.008 -3.515,-6.767 -8.671,-6.767 C 4.565,-6.34 1.281,-3.843 0,0" /></g><g
           transform="translate(284.0234,44.4237)"
           id="g58"><path
             id="path60"
             style="fill:#373535;fill-opacity:1;fill-rule:nonzero;stroke:none"
             d="M 0,0 1.608,0.394 C 2.563,-3.22 5.125,-5.06 8.672,-5.06 c 3.942,0 6.437,1.94 6.437,4.863 0,2.693 -1.115,4.105 -6.734,5.912 -5.419,1.741 -7.652,3.22 -7.652,6.964 0,3.252 3.022,6.01 7.291,6.01 4.469,0 7.031,-2.332 8.048,-5.715 l -1.576,-0.46 c -1.15,3.417 -3.319,4.698 -6.505,4.698 -3.482,0 -5.617,-2.037 -5.617,-4.435 0,-2.923 1.576,-3.909 7.129,-5.715 5.223,-1.708 7.258,-3.449 7.258,-7.162 0,-4.04 -3.645,-6.437 -8.147,-6.437 C 4.138,-6.537 1.017,-4.04 0,0" /></g><g
           transform="translate(312.1523,61.1425)"
           id="g62"><path
             id="path64"
             style="fill:#373535;fill-opacity:1;fill-rule:nonzero;stroke:none"
             d="M 0,0 H -7.983 V 1.511 H 9.624 V 0 H 1.643 V -22.796 H 0 Z" /></g><g
           transform="translate(343.3662,50.4999)"
           id="g66"><path
             id="path68"
             style="fill:#373535;fill-opacity:1;fill-rule:nonzero;stroke:none"
             d="m 0,0 c 0,6.964 -3.547,11.136 -8.311,11.136 -4.795,0 -8.341,-4.172 -8.341,-11.136 0,-6.964 3.546,-11.136 8.341,-11.136 C -3.547,-11.136 0,-6.964 0,0 m -18.295,0 c 0,7.424 4.106,12.613 9.984,12.613 5.847,0 9.953,-5.189 9.953,-12.613 0,-7.423 -4.106,-12.613 -9.953,-12.613 -5.878,0 -9.984,5.19 -9.984,12.613" /></g><g
           transform="translate(358.1299,51.2235)"
           id="g70"><path
             id="path72"
             style="fill:#373535;fill-opacity:1;fill-rule:nonzero;stroke:none"
             d="m 0,0 c 4.204,0 6.668,1.279 6.668,5.058 0,3.547 -2.432,4.861 -6.703,4.861 H -6.144 V 0 Z M -7.786,11.43 H 0.131 C 5.419,11.43 8.31,9.131 8.31,5.123 8.31,1.182 5.911,-0.69 2.364,-1.281 L 8.636,-12.877 H 6.732 L 0.557,-1.479 h -6.701 v -11.398 h -1.642 z" /></g><g
           transform="translate(372.1338,62.6532)"
           id="g74"><path
             id="path76"
             style="fill:#373535;fill-opacity:1;fill-rule:nonzero;stroke:none"
             d="M 0,0 H 14.058 V -1.511 H 1.643 v -9.131 h 9.329 v -1.511 H 1.643 V -22.796 H 14.78 v -1.511 H 0 Z" /></g><g
           transform="translate(50.1172,25.4843)"
           id="g78"><path
             id="path80"
             style="fill:#ffffff;fill-opacity:1;fill-rule:nonzero;stroke:none"
             d="m 0,0 h -24.881 -25.15 v 25.35 24.681 h 25.274 L 0,50.031 V 25.043 Z" /></g><g
           transform="translate(31.6992,40.6571)"
           id="g82"><path
             id="path84"
             style="fill:#3e75b9;fill-opacity:1;fill-rule:nonzero;stroke:none"
             d="M 0,0 -1.007,1.238 V 0 H -4.301 V 2.114 C -4.726,1.918 -5.192,1.816 -5.685,1.816 H -6.848 V 0 h -4.97 L -12.729,1.19 -13.633,0 h -8.249 v 7.856 h 8.287 l 0.906,-1.179 0.904,1.179 H 18.418 V 34.858 H -31.613 V 13.759 l 1.884,4.401 h 3.239 l 1.052,-2.456 v 2.456 h 4.053 l 0.625,-1.78 0.622,1.78 h 18.099 v -0.91 c 0.658,0.579 1.548,0.91 2.598,0.91 h 5.76 l 1.052,-2.456 v 2.456 h 3.411 l 0.903,-1.398 v 1.398 h 3.408 v -7.857 h -3.389 l -0.909,1.42 v -1.42 H 5.846 L 5.355,11.507 H 4 L 3.518,10.303 H 0.443 c -1.005,0 -1.852,0.304 -2.482,0.849 v -0.849 h -5.08 l -1.007,1.239 v -1.239 h -18.838 l -0.49,1.204 h -1.356 l -0.482,-1.204 h -2.321 V -15.173 H 18.418 V 0.579 C 17.913,0.211 17.263,0 16.517,0 Z" /></g><g
           transform="translate(49.5645,46.2108)"
           id="g86"><path
             id="path88"
             style="fill:#3e75b9;fill-opacity:1;fill-rule:nonzero;stroke:none"
             d="m 0,0 0.588,1.321 h -3.113 c -1.283,0 -2.042,-0.783 -2.042,-1.852 0,-1.112 0.718,-1.751 1.838,-1.751 h 1.397 c 0.311,0 0.531,-0.195 0.531,-0.489 0,-0.294 -0.22,-0.48 -0.531,-0.48 h -3.056 v -1.322 h 3.039 c 1.284,0 2.043,0.775 2.043,1.912 0,1.069 -0.67,1.692 -1.839,1.692 h -1.396 c -0.311,0 -0.531,0.194 -0.531,0.489 0,0.294 0.22,0.48 0.531,0.48 z m -8.473,-0.48 c 0,0.294 0.221,0.48 0.532,0.48 H -5.4 l 0.588,1.321 h -3.113 c -1.283,0 -2.043,-0.783 -2.043,-1.852 0,-1.112 0.719,-1.751 1.838,-1.751 h 1.398 c 0.31,0 0.531,-0.195 0.531,-0.489 0,-0.294 -0.221,-0.48 -0.531,-0.48 h -3.056 v -1.322 h 3.039 c 1.283,0 2.043,0.775 2.043,1.912 0,1.069 -0.67,1.692 -1.839,1.692 h -1.396 c -0.311,0 -0.532,0.194 -0.532,0.489 m -6.789,-4.093 h 4.804 v 1.322 h -3.309 v 1.002 h 3.228 v 1.288 h -3.228 V 0 h 3.309 v 1.321 h -4.804 z m -0.236,0 -1.912,2.147 c 0.964,0.202 1.544,0.927 1.544,1.844 0,1.129 -0.784,1.903 -2.042,1.903 h -3.277 v -5.894 h 1.496 v 2.089 h 0.58 l 1.764,-2.089 z m -2.565,3.368 h -1.626 V 0 h 1.626 c 0.457,0 0.694,-0.278 0.694,-0.606 0,-0.337 -0.237,-0.599 -0.694,-0.599 m -3.766,0.539 c 0,1.18 -0.785,1.987 -2.043,1.987 h -3.317 v -5.894 h 1.495 v 1.92 h 1.773 c 1.291,0 2.092,0.85 2.092,1.987 m -1.504,-0.008 c 0,-0.362 -0.237,-0.657 -0.694,-0.657 h -1.667 V 0 h 1.667 c 0.457,0 0.694,-0.304 0.694,-0.674 m -3.986,-3.899 -2.37,2.972 2.353,2.922 h -1.83 l -1.389,-1.809 -1.389,1.809 h -1.879 l 2.361,-2.955 -2.352,-2.939 h 1.83 l 1.388,1.827 1.397,-1.827 z m -11.422,0 h 4.803 v 1.322 h -3.308 v 1.002 h 3.227 v 1.288 h -3.227 V 0 h 3.308 v 1.321 h -4.803 z" /></g><g
           transform="translate(45.7861,51.9413)"
           id="g90"><path
             id="path92"
             style="fill:#3e75b9;fill-opacity:1;fill-rule:nonzero;stroke:none"
             d="M 0,0 V 5.895 H -1.486 V 2.24 L -3.84,5.895 H -5.735 V 0 H -4.24 V 3.789 L -1.813,0 Z m -7.581,0 h 1.691 l -2.525,5.895 h -1.944 L -12.884,0 h 1.651 l 0.482,1.204 h 2.68 z m -1.013,2.484 h -1.635 l 0.818,2.021 z m -4.822,2.046 h 1.585 v 1.365 h -1.699 c -1.855,0 -2.852,-1.23 -2.852,-2.906 V 2.905 c 0,-1.81 1.046,-2.905 2.736,-2.905 h 0.124 l 0.613,1.321 h -0.483 c -0.939,0 -1.495,0.574 -1.495,1.584 v 0.084 c 0,0.884 0.491,1.541 1.471,1.541 M -18.603,0 h 1.496 v 2.887 3.008 h -1.496 V 2.894 Z m -0.236,0 -1.912,2.147 c 0.964,0.203 1.544,0.926 1.544,1.844 0,1.129 -0.784,1.904 -2.042,1.904 h -3.276 V 0 h 1.495 v 2.088 h 0.58 L -20.686,0 Z m -2.565,3.368 h -1.626 v 1.204 h 1.626 c 0.457,0 0.694,-0.277 0.694,-0.606 0,-0.337 -0.237,-0.598 -0.694,-0.598 M -30.179,0 h 4.804 v 1.321 h -3.309 v 1.003 h 3.228 v 1.288 h -3.228 v 0.96 h 3.309 v 1.323 h -4.804 z m -2.475,0 h 1.479 v 5.895 h -2.353 l -1.316,-3.765 -1.323,3.765 h -2.378 V 0 h 1.479 V 4.362 L -35.514,0 h 1.308 l 1.552,4.362 z m -7.737,0 h 1.692 l -2.525,5.895 h -1.944 L -45.693,0 h 1.65 l 0.482,1.204 h 2.68 z m -1.012,2.484 h -1.635 l 0.817,2.021 z" /></g></g></g></g></svg>